<svg width="25" height="25" viewBox="0 0 25 25" fill="none" xmlns="http://www.w3.org/2000/svg">
<path fill-rule="evenodd" clip-rule="evenodd" d="M7.63494 0H17.3651C19.9991 0 22.2471 1.96343 22.6802 4.64229L24.9254 18.5314C25.4728 21.9177 22.94 25.0003 19.6102 25.0003H5.38976C2.06004 25.0003 -0.472754 21.9177 0.0746488 18.5314L2.31983 4.64229C2.75287 1.96343 5.00086 0 7.63494 0ZM12.5 10.764C15.2899 10.764 17.5516 8.43215 17.5516 5.55563V4.16672C17.5516 3.59142 17.0993 3.12504 16.5413 3.12504C15.9833 3.12504 15.531 3.59142 15.531 4.16672V5.55563C15.531 7.28154 14.174 8.68067 12.5 8.68067C10.826 8.68067 9.46901 7.28154 9.46901 5.55563V4.16672C9.46901 3.59142 9.01667 3.12504 8.45868 3.12504C7.90069 3.12504 7.44835 3.59142 7.44835 4.16672V5.55563C7.44835 8.43215 9.71005 10.764 12.5 10.764Z" fill="url(#paint0_linear_1_374)"/>
<defs>
<linearGradient id="paint0_linear_1_374" x1="12.5" y1="0" x2="12.5" y2="25.0003" gradientUnits="userSpaceOnUse">
<stop stop-color="#885DF1"/>
<stop offset="1" stop-color="#6610F2"/>
</linearGradient>
</defs>
</svg>
