<svg width="27" height="25" viewBox="0 0 27 25" fill="none" xmlns="http://www.w3.org/2000/svg">
<path d="M17.3774 0C20.0131 0.000242257 22.2625 1.96392 22.6958 4.64258L23.9302 12.2715C24.0671 13.1181 23.4331 13.8887 22.6001 13.8887H19.2485C16.2706 13.8888 13.857 16.3762 13.8569 19.4443V23.6113C13.8568 24.3783 13.2527 25 12.5083 25H5.39304C2.06124 24.9998 -0.472998 21.9174 0.0746825 18.5312L2.32175 4.64258C2.75509 1.96376 5.00423 0 7.64011 0H17.3774ZM25.228 15.9805C25.5957 15.5476 26.2346 15.504 26.6548 15.8828C27.0749 16.2617 27.1172 16.9196 26.7495 17.3525L22.8813 21.9082C22.05 22.8871 20.6181 23.0176 19.6323 22.2051L17.269 20.2578C16.8332 19.8985 16.7624 19.2431 17.1108 18.7939C17.4596 18.3447 18.0967 18.2715 18.5327 18.6309L20.895 20.5791C21.0358 20.6951 21.2411 20.6759 21.3598 20.5361L25.228 15.9805ZM16.5522 3.125C15.994 3.12515 15.5415 3.59179 15.5415 4.16699V5.55566C15.5414 7.2815 14.1834 8.68067 12.5083 8.68066C10.8332 8.6806 9.47513 7.28146 9.47507 5.55566V4.16699C9.47507 3.59171 9.02269 3.12502 8.46433 3.125C7.90596 3.125 7.45359 3.5917 7.45359 4.16699V5.55566C7.45365 8.43206 9.7165 10.7636 12.5083 10.7637C15.3001 10.7637 17.5639 8.4321 17.5639 5.55566V4.16699C17.5639 3.5917 17.1106 3.125 16.5522 3.125Z" fill="url(#paint0_linear_1_355)"/>
<defs>
<linearGradient id="paint0_linear_1_355" x1="13.4999" y1="0" x2="13.4999" y2="25" gradientUnits="userSpaceOnUse">
<stop stop-color="#885DF1"/>
<stop offset="1" stop-color="#6610F2"/>
</linearGradient>
</defs>
</svg>
