<svg width="375" height="209" viewBox="0 0 375 209" fill="none" xmlns="http://www.w3.org/2000/svg">
<path d="M0 0H375V191C375 200.941 366.941 209 357 209H18C8.05887 209 0 200.941 0 191V0Z" fill="url(#paint0_linear_1_218)"/>
<mask id="mask0_1_218" style="mask-type:alpha" maskUnits="userSpaceOnUse" x="0" y="0" width="375" height="209">
<path d="M0 0H375V191C375 200.941 366.941 209 357 209H18C8.05887 209 0 200.941 0 191V0Z" fill="url(#paint1_linear_1_218)"/>
</mask>
<g mask="url(#mask0_1_218)">
<g opacity="0.3">
<mask id="mask1_1_218" style="mask-type:luminance" maskUnits="userSpaceOnUse" x="-28" y="-13" width="431" height="231">
<path d="M-27.4391 217.359L402.439 217.359L402.439 -12.5411L-27.4391 -12.5411L-27.4391 217.359Z" fill="white"/>
</mask>
<g mask="url(#mask1_1_218)">
<path d="M-27.4391 217.359L402.439 217.359L402.439 -12.5408L-27.4391 -12.5408L-27.4391 217.359Z" fill="url(#paint2_linear_1_218)"/>
</g>
<mask id="mask2_1_218" style="mask-type:luminance" maskUnits="userSpaceOnUse" x="327" y="-13" width="76" height="143">
<path d="M337.581 -5.22585C324.636 10.351 324.636 35.8406 337.581 51.4181L402.439 129.462L402.439 -12.5401L343.66 -12.5401L337.581 -5.22585Z" fill="white"/>
</mask>
<g mask="url(#mask2_1_218)">
<path d="M324.636 129.462L402.439 129.462L402.439 -12.5398L324.636 -12.5398L324.636 129.462Z" fill="url(#paint3_linear_1_218)"/>
</g>
<mask id="mask3_1_218" style="mask-type:luminance" maskUnits="userSpaceOnUse" x="269" y="-13" width="134" height="231">
<path d="M337.581 51.4171C324.636 35.8402 324.636 10.3507 337.581 -5.2268L343.66 -12.5411L314.145 -12.5411L279.208 29.499C266.263 45.0759 266.263 70.5655 279.208 86.1429L388.254 217.359L397.001 217.359C398.421 216.127 399.777 214.743 401.052 213.208L402.439 211.54L402.439 129.461L337.581 51.4171Z" fill="white"/>
</mask>
<g mask="url(#mask3_1_218)">
<path d="M266.263 217.359L402.439 217.359L402.439 -12.5408L266.263 -12.5408L266.263 217.359Z" fill="url(#paint4_linear_1_218)"/>
</g>
<mask id="mask4_1_218" style="mask-type:luminance" maskUnits="userSpaceOnUse" x="210" y="-13" width="179" height="231">
<path d="M279.208 29.499L314.146 -12.5411L226.914 -12.5411L220.179 -4.43767C207.234 11.1392 207.234 36.6288 220.179 52.2062L353.979 213.208C355.255 214.743 356.61 216.127 358.03 217.359L388.255 217.359L279.209 86.1429C266.263 70.5655 266.263 45.0759 279.208 29.499Z" fill="white"/>
</mask>
<g mask="url(#mask4_1_218)">
<path d="M207.234 217.359L388.255 217.359L388.255 -12.5408L207.234 -12.5408L207.234 217.359Z" fill="url(#paint5_linear_1_218)"/>
</g>
<mask id="mask5_1_218" style="mask-type:luminance" maskUnits="userSpaceOnUse" x="-28" y="-13" width="76" height="143">
<path d="M37.4187 -5.22585C50.3637 10.351 50.3637 35.8406 37.4187 51.4181L-27.439 129.462L-27.439 -12.5401L31.3402 -12.5401L37.4187 -5.22585Z" fill="white"/>
</mask>
<g mask="url(#mask5_1_218)">
<path d="M-27.4389 129.462L50.3638 129.462L50.3638 -12.5398L-27.4389 -12.5398L-27.4389 129.462Z" fill="url(#paint6_linear_1_218)"/>
</g>
<mask id="mask6_1_218" style="mask-type:luminance" maskUnits="userSpaceOnUse" x="-28" y="-13" width="134" height="231">
<path d="M37.4181 51.4171C50.3631 35.8402 50.3631 10.3507 37.4181 -5.2268L31.3396 -12.5411L60.8546 -12.5411L95.7917 29.499C108.737 45.0759 108.737 70.5655 95.7917 86.1429L-13.2545 217.359L-22.0016 217.359C-23.4212 216.127 -24.7767 214.743 -26.0525 213.208L-27.4395 211.539L-27.4395 129.46L37.4181 51.4171Z" fill="white"/>
</mask>
<g mask="url(#mask6_1_218)">
<path d="M-27.4397 217.359L108.737 217.359L108.737 -12.5408L-27.4397 -12.5408L-27.4397 217.359Z" fill="url(#paint7_linear_1_218)"/>
</g>
<mask id="mask7_1_218" style="mask-type:luminance" maskUnits="userSpaceOnUse" x="-14" y="-13" width="179" height="231">
<path d="M95.7926 29.499L60.8549 -12.5411L148.088 -12.5411L154.822 -4.43765C167.767 11.1392 167.767 36.6288 154.822 52.2063L21.0215 213.208C19.7462 214.743 18.3906 216.127 16.9711 217.359L-13.2542 217.359L95.7926 86.1429C108.738 70.5655 108.738 45.0759 95.7926 29.499Z" fill="white"/>
</mask>
<g mask="url(#mask7_1_218)">
<path d="M-13.2536 217.359L167.767 217.359L167.767 -12.5408L-13.2536 -12.5408L-13.2536 217.359Z" fill="url(#paint8_linear_1_218)"/>
</g>
</g>
</g>
<defs>
<linearGradient id="paint0_linear_1_218" x1="187.5" y1="0" x2="187.5" y2="209" gradientUnits="userSpaceOnUse">
<stop stop-color="#885DF1"/>
<stop offset="1" stop-color="#6610F2"/>
</linearGradient>
<linearGradient id="paint1_linear_1_218" x1="187.5" y1="0" x2="187.5" y2="209" gradientUnits="userSpaceOnUse">
<stop stop-color="#885DF1"/>
<stop offset="1" stop-color="#6610F2"/>
</linearGradient>
<linearGradient id="paint2_linear_1_218" x1="188.111" y1="-7.86148" x2="186.211" y2="228.901" gradientUnits="userSpaceOnUse">
<stop stop-color="#A87CFF"/>
<stop offset="1" stop-color="#722BF2"/>
</linearGradient>
<linearGradient id="paint3_linear_1_218" x1="415.014" y1="21.1916" x2="339.988" y2="58.7063" gradientUnits="userSpaceOnUse">
<stop stop-color="#A87CFF"/>
<stop offset="1" stop-color="#7838F2"/>
</linearGradient>
<linearGradient id="paint4_linear_1_218" x1="420.341" y1="33.8525" x2="292.031" y2="104.502" gradientUnits="userSpaceOnUse">
<stop stop-color="#A87CFF"/>
<stop offset="1" stop-color="#7839F2"/>
</linearGradient>
<linearGradient id="paint5_linear_1_218" x1="390.132" y1="3.90885" x2="245.143" y2="110.668" gradientUnits="userSpaceOnUse">
<stop stop-color="#A87CFF"/>
<stop offset="1" stop-color="#7D44F2"/>
</linearGradient>
<linearGradient id="paint6_linear_1_218" x1="-40.0117" y1="21.1932" x2="35.0141" y2="58.7079" gradientUnits="userSpaceOnUse">
<stop stop-color="#A87CFF"/>
<stop offset="1" stop-color="#7838F2"/>
</linearGradient>
<linearGradient id="paint7_linear_1_218" x1="-45.3396" y1="33.8542" x2="82.9699" y2="104.503" gradientUnits="userSpaceOnUse">
<stop stop-color="#A87CFF"/>
<stop offset="1" stop-color="#7E46F2"/>
</linearGradient>
<linearGradient id="paint8_linear_1_218" x1="-15.138" y1="3.91006" x2="129.861" y2="110.668" gradientUnits="userSpaceOnUse">
<stop stop-color="#A87CFF"/>
<stop offset="1" stop-color="#7939F2"/>
</linearGradient>
</defs>
</svg>
