<svg width="20" height="20" viewBox="0 0 20 20" fill="none" xmlns="http://www.w3.org/2000/svg">
<g clip-path="url(#clip0_1_584)">
<path d="M18.3333 11.6667L15.8841 9.90327C14.6115 8.98695 12.8722 9.08166 11.7066 10.1307L8.29336 13.2026C7.12772 14.2517 5.38846 14.3464 4.1158 13.4301L1.66663 11.6667M4.99996 18.3333H15C16.8409 18.3333 18.3333 16.841 18.3333 15V5.00001C18.3333 3.15906 16.8409 1.66667 15 1.66667H4.99996C3.15901 1.66667 1.66663 3.15906 1.66663 5V15C1.66663 16.841 3.15901 18.3333 4.99996 18.3333ZM9.16663 7.08334C9.16663 8.23393 8.23389 9.16667 7.08329 9.16667C5.9327 9.16667 4.99996 8.23393 4.99996 7.08334C4.99996 5.93275 5.9327 5.00001 7.08329 5.00001C8.23389 5.00001 9.16663 5.93275 9.16663 7.08334Z" stroke="#1778F2" stroke-width="1.5" stroke-linecap="round"/>
</g>
<defs>
<clipPath id="clip0_1_584">
<rect width="20" height="20" fill="white"/>
</clipPath>
</defs>
</svg>
