<svg width="27" height="27" viewBox="0 0 27 27" fill="none" xmlns="http://www.w3.org/2000/svg">
<path d="M27 13.5C27 20.9558 20.9558 27 13.5 27C6.04416 27 0 20.9558 0 13.5C0 6.04416 6.04416 0 13.5 0C20.9558 0 27 6.04416 27 13.5Z" fill="url(#paint0_linear_1_364)"/>
<path d="M16.0905 16.5706C16.0905 18.0769 14.8695 19.2979 13.3633 19.2979C11.857 19.2979 10.636 18.0769 10.636 16.5706C10.636 15.0644 11.857 13.8434 13.3633 13.8434C14.8695 13.8434 16.0905 15.0644 16.0905 16.5706Z" fill="white"/>
<path fill-rule="evenodd" clip-rule="evenodd" d="M13.3635 7.36551C12.7987 7.36551 12.3408 7.8234 12.3408 8.38824V14.5246C12.3408 15.0894 12.7987 15.5473 13.3635 15.5473C13.9283 15.5473 14.3862 15.0894 14.3862 14.5246V8.38824C14.3862 7.8234 13.9283 7.36551 13.3635 7.36551Z" fill="white"/>
<defs>
<linearGradient id="paint0_linear_1_364" x1="13.5" y1="0" x2="13.5" y2="27" gradientUnits="userSpaceOnUse">
<stop stop-color="#885DF1"/>
<stop offset="1" stop-color="#6610F2"/>
</linearGradient>
</defs>
</svg>
