<svg width="24" height="26" viewBox="0 0 24 26" fill="none" xmlns="http://www.w3.org/2000/svg">
<path d="M4.12823 18.2591V23.0431C4.12823 23.2969 4.0291 23.5403 3.85264 23.7197C3.67619 23.8991 3.43687 23.9999 3.18732 23.9999H0.940907C0.691363 23.9999 0.45204 23.8991 0.275585 23.7197C0.099131 23.5403 0 23.2969 0 23.0431V18.2591C0 18.0054 0.099131 17.762 0.275585 17.5826C0.45204 17.4031 0.691363 17.3023 0.940907 17.3023H3.19203C3.44076 17.3036 3.67887 17.4049 3.85431 17.5842C4.02975 17.7635 4.12823 18.0062 4.12823 18.2591ZM23.9931 17.1277C23.969 16.7808 23.8483 16.4481 23.6451 16.1684C23.4419 15.8887 23.1646 15.6735 22.8457 15.5481C22.5267 15.4227 22.1792 15.3922 21.8439 15.4601C21.5085 15.528 21.199 15.6916 20.9517 15.9317L17.6844 19.1585L17.7196 20.6081C17.7209 20.8136 17.6822 21.0173 17.6059 21.2076C17.5295 21.3979 17.417 21.5711 17.2747 21.7171C17.1325 21.863 16.9633 21.9791 16.7769 22.0584C16.5904 22.1378 16.3904 22.179 16.1883 22.1796H11.2485V21.2228H16.1883C16.266 21.2228 16.343 21.2072 16.4148 21.1769C16.4866 21.1466 16.5518 21.1021 16.6066 21.0461C16.6615 20.9901 16.7049 20.9236 16.7345 20.8505C16.764 20.7774 16.779 20.6991 16.7787 20.62L16.7529 19.5341C16.75 19.4209 16.7078 19.3124 16.6338 19.2278C16.5597 19.1433 16.4585 19.0882 16.3483 19.0724C16.2903 19.0688 16.2322 19.0688 16.1742 19.0724C15.3533 19.0724 14.4429 19.0724 13.4691 19.0461C12.3329 19.0174 11.6743 18.6179 10.9122 18.1539C9.96445 17.5117 8.88894 17.0902 7.76248 16.9196C6.76944 16.7574 5.75153 16.9358 4.86919 17.4267C4.99361 17.686 5.05874 17.9706 5.05973 18.2591V23.0431C5.0595 23.1418 5.05084 23.2402 5.03385 23.3373C6.76512 23.9808 9.55256 24.9663 11.4203 25.3706C11.9888 25.4994 12.5691 25.5667 13.1515 25.5715C13.8955 25.5708 14.6336 25.4372 15.3321 25.1768C17.1096 24.5389 18.718 23.4918 20.0319 22.1174L23.485 18.5294C23.6614 18.3449 23.7978 18.1248 23.8853 17.8834C23.9728 17.6419 24.0096 17.3845 23.9931 17.1277ZM11.2603 3.93819C11.4748 3.83722 11.7084 3.78498 11.9448 3.7851H13.1727L12.4435 2.84026L13.1821 2.24943L14.3183 3.69899L15.4497 2.23269L16.1907 2.82351L15.4615 3.76836H16.7011C16.9375 3.76824 17.1711 3.82048 17.3856 3.92144L18.9922 1.72798C19.0298 1.6772 19.0571 1.61933 19.0724 1.55772C19.0878 1.49612 19.0909 1.43202 19.0816 1.36917C19.0571 1.24626 18.9862 1.13803 18.884 1.06778L17.9878 0.407588C17.5671 0.0997581 17.0504 -0.0414135 16.5346 0.0105516C16.0188 0.0625167 15.5394 0.304048 15.1862 0.689845C15.0761 0.812014 14.9421 0.909559 14.7929 0.976289C14.6437 1.04302 14.4824 1.07748 14.3194 1.07748C14.1564 1.07748 13.9952 1.04302 13.846 0.976289C13.6967 0.909559 13.5628 0.812014 13.4526 0.689845C13.0995 0.304048 12.6201 0.0625167 12.1043 0.0105516C11.5885 -0.0414135 11.0718 0.0997581 10.6511 0.407588L9.75486 1.06778C9.70405 1.10489 9.66103 1.15192 9.62831 1.20614C9.5956 1.26035 9.57384 1.32066 9.56432 1.38353C9.55471 1.44621 9.55745 1.51022 9.57239 1.57182C9.58733 1.63342 9.61418 1.69138 9.65135 1.74233L11.2603 3.93819ZM16.7011 4.73233H11.9448C11.7535 4.73296 11.5702 4.81053 11.4349 4.94811C11.2996 5.08569 11.2233 5.27211 11.2227 5.46668V6.83969H17.4068V5.46668C17.4062 5.27497 17.3322 5.09103 17.2005 4.95391C17.0687 4.8168 16.8896 4.73731 16.7011 4.73233ZM7.80247 15.9604C7.64898 15.3914 7.56989 14.8043 7.56725 14.2142V14.1784C7.56801 12.4834 8.156 10.843 9.22795 9.54505L10.6722 7.79649H17.9549L19.4015 9.54505C20.4735 10.843 21.0614 12.4834 21.0622 14.1784V14.3578C21.0622 14.4821 21.0622 14.597 21.0457 14.7285C20.7693 14.8584 20.5157 15.0338 20.2954 15.2476L17.1151 18.3859C16.92 18.2394 16.6904 18.1478 16.4494 18.1204C16.3549 18.1104 16.2598 18.1056 16.1648 18.106H15.5391C14.8946 18.106 14.2053 18.106 13.4926 18.0773C12.6035 18.051 12.1212 17.764 11.3944 17.3334C10.3421 16.6302 9.15162 16.169 7.90597 15.9819L7.80247 15.9604ZM12.0177 12.5183C12.018 12.7036 12.0542 12.8871 12.1243 13.0582C12.1943 13.2293 12.2968 13.3847 12.4259 13.5155C12.555 13.6464 12.7081 13.7501 12.8766 13.8207C13.0451 13.8913 13.2257 13.9275 13.4079 13.9272H15.2403C15.3583 13.9272 15.4713 13.9748 15.5547 14.0596C15.6381 14.1444 15.6849 14.2594 15.6849 14.3793C15.6849 14.4992 15.6381 14.6142 15.5547 14.699C15.4713 14.7837 15.3583 14.8314 15.2403 14.8314H12.4882V15.7882H13.8478V16.6326H14.7887V15.7882H15.2356C15.6031 15.7882 15.9555 15.6397 16.2153 15.3755C16.4752 15.1113 16.6211 14.7529 16.6211 14.3793C16.6211 14.0056 16.4752 13.6473 16.2153 13.3831C15.9555 13.1188 15.6031 12.9704 15.2356 12.9704H13.4079C13.3017 12.9546 13.2047 12.9005 13.1345 12.8179C13.0643 12.7353 13.0257 12.6298 13.0257 12.5207C13.0257 12.4116 13.0643 12.3061 13.1345 12.2235C13.2047 12.1409 13.3017 12.0868 13.4079 12.071H16.1507V11.1142H14.7887V10.1311H13.8478V11.1142H13.4079C13.0407 11.1136 12.6881 11.261 12.4275 11.5242C12.167 11.7874 12.0196 12.1448 12.0177 12.5183Z" fill="url(#paint0_linear_1_333)"/>
<defs>
<linearGradient id="paint0_linear_1_333" x1="11.9985" y1="0" x2="11.9985" y2="25.5715" gradientUnits="userSpaceOnUse">
<stop stop-color="#885DF1"/>
<stop offset="1" stop-color="#6610F2"/>
</linearGradient>
</defs>
</svg>
