<svg width="26" height="26" viewBox="0 0 26 26" fill="none" xmlns="http://www.w3.org/2000/svg">
<path fill-rule="evenodd" clip-rule="evenodd" d="M19.0639 11.1027H12.0224C11.4062 11.1027 10.902 10.5972 10.902 9.97941V9.15475C10.902 8.78371 11.0839 8.45325 11.3627 8.2484C12.3728 9.42797 13.8709 10.1754 15.5432 10.1754C17.2155 10.1754 18.7135 9.42797 19.7236 8.2484C20.0023 8.4532 20.1843 8.78371 20.1843 9.15475V9.97941C20.1843 10.5972 19.6801 11.1027 19.0639 11.1027ZM2.72281 16.983L6.76354 24.1414C6.95892 24.4875 6.83634 24.9309 6.49109 25.1268L5.11666 25.9067C4.77145 26.1026 4.32913 25.9797 4.13375 25.6336L0.0930165 18.4753C-0.102363 18.1292 0.0202164 17.6857 0.365475 17.4898L1.7399 16.71C2.08511 16.514 2.52743 16.6369 2.72281 16.983ZM1.71547 17.913C1.44729 17.9523 1.26172 18.2021 1.30093 18.471C1.34015 18.7399 1.58932 18.9259 1.8575 18.8867C2.12568 18.8474 2.31125 18.5975 2.27204 18.3287C2.23282 18.0597 1.98365 17.8737 1.71547 17.913ZM3.95245 17.3972L6.80449 22.4497L7.41382 22.097L13.8618 23.8293C14.7893 24.0785 15.6839 23.9608 16.5015 23.4561L25.3912 17.9679C26.6573 17.1865 26.098 13.7658 22.2902 15.9892L17.3916 18.8499C17.1451 18.9938 16.8943 19.0997 16.6377 19.1705C16.231 19.7978 15.3693 20.0911 14.6582 19.9052C13.6012 19.625 12.5458 19.3389 11.4898 19.0552C11.2588 18.9934 11.1217 18.7555 11.1834 18.5241C11.2451 18.2925 11.4823 18.155 11.7132 18.2169C12.7626 18.4988 13.811 18.7846 14.8613 19.0631C15.55 19.1604 16.0389 18.8224 16.2212 18.1402C16.4183 17.4029 15.9667 16.6757 15.2424 16.4402C13.291 16.0873 11.3775 15.2692 10.2057 14.8883C9.15468 14.5464 8.18233 14.9403 7.22613 15.4957L3.95245 17.3972ZM15.5432 0C12.9799 0 10.902 2.08336 10.902 4.65321C10.902 7.22307 12.9799 9.30648 15.5432 9.30648C18.1064 9.30648 20.1843 7.22312 20.1843 4.65321C20.1843 2.08331 18.1064 0 15.5432 0ZM17.309 3.0716C17.4015 3.2928 17.2977 3.54734 17.0771 3.64015C16.8565 3.73291 16.6026 3.62886 16.51 3.40766C16.3084 2.92622 15.8055 2.72409 15.3145 2.82325C14.9572 2.89543 14.6212 3.13601 14.6407 3.53838C14.6634 4.00847 15.2405 4.14685 15.6168 4.20881C16.4778 4.35056 17.3349 4.70964 17.4538 5.69158C17.4588 5.73307 17.462 5.78244 17.4634 5.83919C17.4841 6.7117 16.7564 7.20797 15.9765 7.33901V7.59779C15.9765 7.83772 15.7825 8.03225 15.5432 8.03225C15.3039 8.03225 15.1098 7.83772 15.1098 7.59779V7.3306C14.4 7.19341 13.8144 6.73196 13.6345 6.00841C13.5775 5.77598 13.7192 5.5412 13.951 5.48402C14.1829 5.42683 14.417 5.56895 14.4741 5.80139C14.599 6.3039 15.1169 6.51831 15.5937 6.50685C15.64 6.50577 15.696 6.50126 15.761 6.49338C16.1037 6.45168 16.6102 6.28408 16.6002 5.85956C16.5999 5.8469 16.5978 5.82496 16.594 5.79341C16.5314 5.27645 15.9039 5.13427 15.4781 5.06416C14.6472 4.92736 13.8239 4.53602 13.7775 3.57911C13.7375 2.75092 14.3418 2.15146 15.1099 1.98219V1.70869C15.1099 1.46876 15.304 1.27423 15.5433 1.27423C15.7826 1.27423 15.9766 1.46876 15.9766 1.70869V1.97583C16.5865 2.10329 17.0669 2.49355 17.309 3.0716ZM14.0087 15.2599H19.0639C19.625 15.2599 20.0931 15.679 20.1724 16.2204L17.1241 18.0004C17.2247 16.9409 16.5413 15.9489 15.5096 15.6135C15.0683 15.4702 14.4931 15.3964 14.0087 15.2599ZM19.0639 11.6457C19.6801 11.6457 20.1842 12.1512 20.1842 12.769V13.5937C20.1842 14.2115 19.6801 14.7169 19.0639 14.7169H12.3232C11.9305 14.5772 11.5392 14.4316 11.1466 14.292C10.9937 14.0999 10.902 13.857 10.902 13.5937V12.769C10.902 12.1512 11.4062 11.6457 12.0224 11.6457H19.0639Z" fill="url(#paint0_linear_1_327)"/>
<defs>
<linearGradient id="paint0_linear_1_327" x1="13" y1="0" x2="13" y2="26" gradientUnits="userSpaceOnUse">
<stop stop-color="#885DF1"/>
<stop offset="1" stop-color="#6610F2"/>
</linearGradient>
</defs>
</svg>
