<svg width="24" height="27" viewBox="0 0 24 27" fill="none" xmlns="http://www.w3.org/2000/svg">
<path d="M4.66699 2.60449C4.66699 5.12119 6.75584 7.16192 9.33301 7.16211H14.667C17.2442 7.16195 19.333 5.12121 19.333 2.60449H20C22.2091 2.60449 23.9999 4.39545 24 6.60449V22.041C24 24.2502 22.2091 26.041 20 26.041H4C1.79086 26.041 0 24.2502 0 22.041V6.60449C0.000116545 4.39545 1.79093 2.60449 4 2.60449H4.66699ZM6.66699 19.8564C6.11471 19.8564 5.66699 20.2937 5.66699 20.833C5.66701 21.3723 6.11472 21.8096 6.66699 21.8096H12C12.5523 21.8096 13 21.3723 13 20.833C13 20.2937 12.5523 19.8564 12 19.8564H6.66699ZM6.66699 14.6484C6.11471 14.6484 5.66699 15.0857 5.66699 15.625C5.66701 16.1643 6.11472 16.6016 6.66699 16.6016H17.333C17.8853 16.6016 18.333 16.1643 18.333 15.625C18.333 15.0857 17.8853 14.6484 17.333 14.6484H6.66699ZM6.66699 9.43945C6.11471 9.43945 5.66699 9.8767 5.66699 10.416C5.66701 10.9553 6.11472 11.3926 6.66699 11.3926H17.333C17.8853 11.3926 18.333 10.9553 18.333 10.416C18.333 9.8767 17.8853 9.43945 17.333 9.43945H6.66699ZM14.7295 0C16.1676 5.84527e-05 17.333 1.16635 17.333 2.60449C17.3328 4.04244 16.1675 5.20795 14.7295 5.20801H9.27051C7.83262 5.20783 6.66723 4.04236 6.66699 2.60449C6.66699 1.16642 7.83248 0.000176981 9.27051 0H14.7295Z" fill="url(#paint0_linear_1_340)"/>
<defs>
<linearGradient id="paint0_linear_1_340" x1="12" y1="0" x2="12" y2="26.041" gradientUnits="userSpaceOnUse">
<stop stop-color="#885DF1"/>
<stop offset="1" stop-color="#6610F2"/>
</linearGradient>
</defs>
</svg>
